<svg width="86" height="36" viewBox="0 0 86 36" fill="none" xmlns="http://www.w3.org/2000/svg">
<path d="M12.9985 24.0194H8.88457C8.76091 24.0202 8.63872 23.9925 8.52742 23.9383C8.41611 23.8841 8.31868 23.8049 8.24262 23.7068C8.16657 23.6087 8.11393 23.4943 8.08878 23.3725C8.06362 23.2507 8.06662 23.1248 8.09754 23.0043L13.2118 3.79328C13.2589 3.61915 13.3619 3.46556 13.5047 3.35645C13.6476 3.24734 13.8223 3.18883 14.0017 3.19003H18.107C18.231 3.18816 18.3539 3.21519 18.4658 3.26902C18.5778 3.32285 18.6759 3.40201 18.7524 3.50031C18.8289 3.59861 18.8817 3.71339 18.9068 3.83566C18.9319 3.95793 18.9285 4.08438 18.8969 4.20511L13.7826 23.4161C13.7354 23.5891 13.6331 23.7417 13.4915 23.8506C13.3499 23.9596 13.1767 24.0188 12.9985 24.0194Z" fill="white"/>
<path d="M10.6633 6.25869H6.55806C6.37869 6.25748 6.20396 6.31599 6.06108 6.4251C5.91821 6.53421 5.81522 6.6878 5.76815 6.86193L2.38075 20.2174C2.34976 20.3381 2.34681 20.4644 2.37213 20.5864C2.39744 20.7084 2.45033 20.8229 2.52671 20.9211C2.60309 21.0192 2.7009 21.0984 2.81257 21.1524C2.92423 21.2064 3.04676 21.2338 3.17066 21.2325H6.89825L11.4446 6.84163C11.3946 6.67247 11.2915 6.52419 11.1506 6.41906C11.0097 6.31394 10.8387 6.25766 10.6633 6.25869Z" fill="white"/>
<path d="M1.60522 11.4443C1.37679 11.4444 1.15517 11.5225 0.976591 11.6658C0.798015 11.8091 0.673056 12.0091 0.62215 12.2332L0.0253898 14.8637C-0.00845645 15.0122 -0.00854552 15.1664 0.0251292 15.315C0.058804 15.4635 0.125374 15.6025 0.219875 15.7215C0.314376 15.8406 0.434371 15.9366 0.570913 16.0025C0.707454 16.0684 0.85702 16.1024 1.00846 16.1021H2.68342L4.06145 11.4443H1.60522Z" fill="white"/>
<path d="M73.0089 3.19003H77.1141C77.2382 3.18816 77.3611 3.21519 77.473 3.26902C77.585 3.32285 77.6831 3.40201 77.7596 3.50031C77.8361 3.59861 77.8889 3.71339 77.914 3.83566C77.939 3.95793 77.9357 4.08438 77.9041 4.20511L72.7898 23.4161C72.7422 23.5905 72.6386 23.7442 72.4953 23.8533C72.3519 23.9623 72.1767 24.0207 71.997 24.0194H67.8946C67.7707 24.0205 67.6481 23.9931 67.5364 23.9391C67.4246 23.8851 67.3267 23.806 67.2501 23.708C67.1735 23.6099 67.1204 23.4955 67.0946 23.3735C67.0689 23.2515 67.0714 23.1252 67.1018 23.0043L72.219 3.79328C72.2665 3.61939 72.3696 3.46609 72.5124 3.35705C72.6551 3.24802 72.8296 3.18932 73.0089 3.19003Z" fill="white"/>
<path d="M84.3934 11.1105C84.6216 11.1099 84.8432 11.1874 85.0218 11.3302C85.2004 11.4731 85.3255 11.6727 85.3765 11.8964L85.9732 14.5269C86.008 14.676 86.0088 14.831 85.9756 14.9804C85.9424 15.1298 85.8761 15.2697 85.7815 15.3897C85.687 15.5096 85.5667 15.6065 85.4296 15.6731C85.2926 15.7396 85.1424 15.7741 84.9902 15.774H82.2485L83.1566 11.1163L84.3934 11.1105Z" fill="white"/>
<path d="M82.8279 5.97728H78.7918C78.6169 5.97743 78.4473 6.038 78.3114 6.14885C78.1755 6.25971 78.0815 6.41414 78.0452 6.58632L75.1017 20.954H79.4434C79.6225 20.9542 79.7968 20.8953 79.9395 20.7864C80.0821 20.6774 80.1854 20.5244 80.2333 20.3508L83.6178 7.00976C83.652 6.88794 83.6574 6.75977 83.6336 6.63549C83.6097 6.5112 83.5574 6.39424 83.4806 6.29394C83.4039 6.19363 83.3049 6.11276 83.1916 6.05778C83.0782 6.0028 82.9537 5.97523 82.8279 5.97728Z" fill="white"/>
<path d="M18.5306 35.2578C18.2815 35.5072 17.9833 35.7016 17.6551 35.8284C17.327 35.9553 16.9761 36.0118 16.625 35.9944C15.4373 35.9944 14.3937 35.2056 14.3937 33.77C14.3937 32.3343 15.4373 31.5484 16.6366 31.5484C16.9686 31.5306 17.3002 31.5896 17.6061 31.7208C17.9119 31.852 18.1838 32.052 18.4009 32.3053L17.735 32.8854C17.5992 32.727 17.4304 32.6006 17.2405 32.5154C17.0507 32.4302 16.8444 32.3881 16.6366 32.3923C15.9476 32.3923 15.4113 32.8999 15.4113 33.7757C15.4113 34.6516 15.9591 35.1563 16.6539 35.1563C17.3486 35.1563 17.5504 34.8662 17.5504 34.8662V34.2282H16.6481V33.4654H18.5306V35.2578Z" fill="white"/>
<path d="M22.8004 34.1238C22.8004 34.7299 22.6937 35.1505 22.3881 35.4811C22.2062 35.6596 21.989 35.7975 21.7505 35.8859C21.5121 35.9744 21.2579 36.0114 21.0043 35.9944C20.7496 36.0142 20.4935 35.9801 20.2527 35.8941C20.0118 35.8082 19.7916 35.6725 19.6061 35.4956C19.3178 35.165 19.2025 34.7444 19.2025 34.1383V31.6267H20.2058V34.1383C20.1774 34.3903 20.2364 34.6444 20.373 34.8576C20.4489 34.9464 20.5439 35.0168 20.6507 35.0635C20.7576 35.1102 20.8735 35.132 20.9899 35.1273C21.1059 35.1322 21.2215 35.1105 21.3279 35.0637C21.4343 35.017 21.5287 34.9465 21.604 34.8576C21.7419 34.645 21.8011 34.3904 21.7712 34.1383V31.6267H22.8004V34.1238Z" fill="white"/>
<path d="M27.2486 35.925H26.1531L25.8648 35.0549H24.3196L24.0313 35.925H22.9733L24.5877 31.6066H25.6313L27.2486 35.925ZM25.6198 34.269L25.0864 32.7174L24.5502 34.269H25.6198Z" fill="white"/>
<path d="M30.0969 35.9252H27.6119V31.6125H28.6122V35.0928H30.0969V35.9252Z" fill="white"/>
<path d="M33.6574 35.4114C33.1843 35.7734 32.5991 35.9553 32.0055 35.9248H30.564V31.6121H32.0055C32.6002 31.5805 33.1864 31.7647 33.6574 32.1313C33.8778 32.343 34.0532 32.5976 34.173 32.8795C34.2929 33.1613 34.3547 33.4648 34.3547 33.7713C34.3547 34.0779 34.2929 34.3814 34.173 34.6632C34.0532 34.9451 33.8778 35.1997 33.6574 35.4114ZM32.9568 32.7548C32.7046 32.5486 32.3847 32.4451 32.0602 32.4648H31.5529V35.075H32.0602C32.3881 35.0909 32.7094 34.9787 32.9568 34.7618C33.0869 34.6347 33.188 34.4807 33.2532 34.3104C33.3184 34.1402 33.3462 33.9578 33.3345 33.7757C33.3457 33.5885 33.318 33.4009 33.2529 33.2251C33.1879 33.0493 33.087 32.8891 32.9568 32.7548Z" fill="white"/>
<path d="M38.6561 35.925H37.5606L37.2551 35.0549H35.7271L35.4215 35.925H34.3779L35.9923 31.6066H37.0388L38.6561 35.925ZM37.0273 34.269L36.494 32.7174L35.9578 34.269H37.0273Z" fill="white"/>
<path d="M43.0931 32.413H41.989V35.9252H40.9799V32.413H39.8758V31.6125H43.0931V32.413Z" fill="white"/>
<path d="M46.9012 35.9248H45.748L44.8485 34.2746H44.5314V35.9248H43.5224V31.6122H45.0647C45.4646 31.5886 45.8613 31.6965 46.1948 31.9196C46.3468 32.0335 46.4691 32.1827 46.5514 32.3544C46.6337 32.526 46.6736 32.7152 46.6676 32.9057C46.6865 33.177 46.614 33.4467 46.4618 33.6714C46.3096 33.8961 46.0866 34.0626 45.8287 34.1441L46.9012 35.9248ZM45.4222 32.5055C45.267 32.4125 45.0858 32.3728 44.9062 32.3924H44.5084V33.5003H44.9062C45.0865 33.5181 45.2676 33.4764 45.4222 33.3813C45.4891 33.3305 45.5433 33.2648 45.5807 33.1893C45.6181 33.1138 45.6375 33.0306 45.6375 32.9463C45.6375 32.862 45.6181 32.7788 45.5807 32.7033C45.5433 32.6278 45.4891 32.5621 45.4222 32.5113V32.5055Z" fill="white"/>
<path d="M51.0958 35.925H50.0032L49.6976 35.0549H48.1697L47.8641 35.925H46.8205L48.4349 31.6066H49.4814L51.0958 35.925ZM49.467 34.269L48.9337 32.7174L48.4003 34.269H49.467Z" fill="white"/>
<path d="M52.4682 35.9252H51.462V31.6125H52.4682V35.9252Z" fill="white"/>
<path d="M57.127 35.9252H56.0949L54.2239 32.9989C54.2239 32.9989 54.2441 33.518 54.2441 33.9762V35.9252H53.261V31.6125H54.3363L56.1756 34.5128C56.1756 34.5128 56.1583 34.0255 56.1583 33.5673V31.6125H57.1385L57.127 35.9252Z" fill="white"/>
<path d="M58.9144 35.9252H57.9111V31.6125H58.9144V35.9252Z" fill="white"/>
<path d="M63.5758 35.9252H62.5438L60.6612 32.9989C60.6612 32.9989 60.6785 33.518 60.6785 33.9762V35.9252H59.7012V31.6125H60.7766L62.6158 34.5128C62.6158 34.5128 62.5985 34.0255 62.5985 33.5673V31.6125H63.5787L63.5758 35.9252Z" fill="white"/>
<path d="M68.2781 35.2579C68.0285 35.5076 67.7298 35.7021 67.4011 35.8289C67.0725 35.9558 66.7212 36.0122 66.3696 35.9946C65.1847 35.9946 64.1411 35.2057 64.1411 33.7701C64.1411 32.3345 65.1847 31.5485 66.384 31.5485C66.7161 31.5303 67.0479 31.5891 67.3538 31.7203C67.6597 31.8516 67.9315 32.0518 68.1483 32.3055L67.4853 32.8855C67.3495 32.7271 67.1807 32.6008 66.9909 32.5155C66.801 32.4303 66.5948 32.3883 66.3869 32.3925C65.6979 32.3925 65.1617 32.9 65.1617 33.7759C65.1617 34.6518 65.7094 35.1564 66.4042 35.1564C67.099 35.1564 67.3008 34.8664 67.3008 34.8664V34.2283H66.3984V33.4656H68.281L68.2781 35.2579Z" fill="white"/>
<path d="M36.6698 0C29.5231 0 22.486 4.65485 20.984 13.2221C19.482 21.7893 24.8817 26.4819 31.9534 26.4819C38.6417 26.4819 42.228 23.5527 43.854 22.2708C44.007 22.1514 44.1099 21.9785 44.1423 21.7864L45.7942 12.3665C45.8139 12.2522 45.8086 12.1349 45.7786 12.0229C45.7486 11.9108 45.6947 11.8067 45.6206 11.7178C45.5464 11.6288 45.4539 11.5573 45.3495 11.508C45.245 11.4588 45.1312 11.4331 45.0158 11.4327H35.4013C35.215 11.4325 35.0345 11.4984 34.8916 11.6188C34.7488 11.7392 34.6526 11.9064 34.6201 12.091L34.0031 15.1942C33.9848 15.301 33.9884 15.4103 34.0137 15.5156C34.0391 15.6208 34.0856 15.7197 34.1504 15.8062C34.2153 15.8926 34.2971 15.9648 34.3908 16.0182C34.4844 16.0715 34.588 16.105 34.695 16.1165H43.436L39.1289 16.6966C39.1479 16.7796 39.1479 16.8658 39.1289 16.9489L38.685 19.5446C38.6542 19.7389 38.5512 19.9141 38.3967 20.0347C37.8201 20.4813 36.223 21.4558 33.023 21.4558C28.8745 21.4558 26.1472 18.4396 27.0611 13.225C27.975 8.0104 31.6738 4.99417 35.7963 4.99417C38.7542 4.99417 40.4234 6.25867 41.3862 7.36945C41.5178 7.51772 41.7002 7.61055 41.8969 7.62937C42.0936 7.64819 42.2901 7.59162 42.4471 7.47096L45.774 4.95067C45.8587 4.88619 45.9296 4.80526 45.9826 4.71267C46.0356 4.62009 46.0695 4.51774 46.0824 4.4117C46.0953 4.30566 46.0869 4.19809 46.0577 4.09538C46.0285 3.99267 45.9791 3.89691 45.9124 3.81379C44.8313 2.46228 42.2915 0 36.6698 0Z" fill="white"/>
<path d="M67.3179 0.371094H49.7322C49.5464 0.371624 49.3666 0.437841 49.2243 0.558178C49.082 0.678514 48.9863 0.845318 48.9539 1.02944L48.3975 4.21968C48.3782 4.32951 48.3821 4.44219 48.4091 4.55036C48.4361 4.65852 48.4856 4.75973 48.5542 4.84735C48.6227 4.93497 48.7089 5.00702 48.8071 5.05879C48.9053 5.11056 49.0133 5.14088 49.1239 5.14775H58.3492L54.7398 5.62339L51.3409 25.1389C51.3212 25.2533 51.3265 25.3706 51.3565 25.4826C51.3865 25.5947 51.4404 25.6988 51.5145 25.7877C51.5886 25.8766 51.6812 25.9482 51.7856 25.9975C51.8901 26.0467 52.0039 26.0724 52.1193 26.0728H56.5013C56.6872 26.0723 56.8669 26.0061 57.0092 25.8857C57.1515 25.7654 57.2472 25.5986 57.2797 25.4145L60.719 5.7945C60.7515 5.61066 60.8473 5.4442 60.9896 5.32435C61.132 5.20449 61.3117 5.13889 61.4973 5.13905H66.7615C66.9474 5.13852 67.1272 5.0723 67.2694 4.95197C67.4117 4.83163 67.5074 4.66483 67.5399 4.4807L68.0963 1.30496C68.1165 1.19056 68.1116 1.07308 68.0818 0.960811C68.052 0.848541 67.9981 0.744208 67.9239 0.655167C67.8497 0.566125 67.7569 0.494542 67.6522 0.44546C67.5475 0.396378 67.4334 0.370993 67.3179 0.371094Z" fill="white"/>
</svg>
