<svg width="221" height="97" viewBox="0 0 221 97" fill="none" xmlns="http://www.w3.org/2000/svg">
  <path d="M35.398 63.1603H25.0892C24.7793 63.1624 24.4731 63.0933 24.1942 62.9582C23.9153 62.8232 23.6711 62.626 23.4805 62.3816C23.29 62.1373 23.1581 61.8525 23.095 61.5491C23.032 61.2457 23.0395 60.9319 23.117 60.6318L35.9326 12.7793C36.0505 12.3456 36.3086 11.963 36.6666 11.6912C37.0246 11.4195 37.4625 11.2737 37.912 11.2767H48.1991C48.51 11.272 48.8178 11.3394 49.0984 11.4735C49.379 11.6075 49.6247 11.8047 49.8164 12.0496C50.0081 12.2944 50.1406 12.5803 50.2034 12.8849C50.2662 13.1895 50.2577 13.5044 50.1785 13.8052L37.3629 61.6577C37.2445 62.0884 36.9883 62.4685 36.6335 62.7399C36.2786 63.0112 35.8447 63.1589 35.398 63.1603Z" fill="#57606F"/>
  <path d="M29.5467 18.9198H19.2595C18.8101 18.9168 18.3722 19.0626 18.0142 19.3344C17.6562 19.6062 17.3981 19.9887 17.2801 20.4225L8.7918 53.6895C8.71416 53.9901 8.70677 54.3046 8.7702 54.6085C8.83362 54.9124 8.96617 55.1977 9.15756 55.4422C9.34895 55.6866 9.59405 55.8838 9.87387 56.0183C10.1537 56.1528 10.4607 56.2211 10.7712 56.2179H20.112L31.5044 20.3719C31.3793 19.9505 31.1208 19.5812 30.7677 19.3193C30.4147 19.0575 29.9862 18.9173 29.5467 18.9198Z" fill="#57606F"/>
  <path d="M6.84827 31.8365C6.27587 31.8369 5.72051 32.0314 5.27303 32.3883C4.82554 32.7453 4.51241 33.2435 4.38485 33.8015L2.88946 40.3538C2.80465 40.7237 2.80442 41.1079 2.88881 41.4779C2.97319 41.8479 3.14 42.194 3.37681 42.4906C3.61362 42.7871 3.91431 43.0263 4.25646 43.1905C4.59861 43.3546 4.9734 43.4394 5.35288 43.4385H9.55009L13.0032 31.8365H6.84827Z" fill="#57606F"/>
  <path d="M185.775 11.2767H196.062C196.373 11.272 196.681 11.3394 196.961 11.4735C197.242 11.6075 197.488 11.8047 197.68 12.0496C197.871 12.2944 198.004 12.5803 198.066 12.8849C198.129 13.1895 198.121 13.5044 198.042 13.8052L185.226 61.6577C185.107 62.092 184.847 62.4747 184.488 62.7465C184.129 63.0182 183.69 63.1637 183.239 63.1603H172.959C172.649 63.1632 172.342 63.0947 172.062 62.9602C171.782 62.8258 171.536 62.6288 171.344 62.3846C171.153 62.1403 171.019 61.8553 170.955 61.5514C170.89 61.2475 170.897 60.9329 170.973 60.6318L183.796 12.7793C183.915 12.3462 184.173 11.9643 184.531 11.6927C184.889 11.4211 185.326 11.2749 185.775 11.2767Z" fill="#57606F"/>
  <path d="M214.303 31.0057C214.875 31.0044 215.43 31.1974 215.878 31.5531C216.325 31.9089 216.639 32.4062 216.766 32.9635L218.262 39.5157C218.349 39.887 218.351 40.2731 218.268 40.6453C218.185 41.0174 218.018 41.366 217.781 41.6647C217.544 41.9635 217.243 42.2048 216.9 42.3706C216.556 42.5364 216.18 42.6224 215.798 42.6221H208.928L211.204 31.0202L214.303 31.0057Z" fill="#57606F"/>
  <path d="M210.38 18.2191H200.266C199.828 18.2195 199.403 18.3704 199.062 18.6465C198.722 18.9226 198.486 19.3073 198.395 19.7362L191.02 55.5244H201.899C202.348 55.525 202.785 55.3783 203.142 55.1069C203.5 54.8355 203.758 54.4543 203.878 54.0218L212.36 20.7909C212.445 20.4875 212.459 20.1682 212.399 19.8587C212.339 19.5491 212.208 19.2577 212.016 19.0079C211.823 18.758 211.575 18.5566 211.291 18.4197C211.007 18.2827 210.695 18.214 210.38 18.2191Z" fill="#57606F"/>
  <path d="M49.2611 91.1537C48.6367 91.7751 47.8895 92.2592 47.0672 92.5752C46.245 92.8912 45.3658 93.032 44.486 92.9886C41.5097 92.9886 38.8945 91.0237 38.8945 87.4478C38.8945 83.8718 41.5097 81.9141 44.5149 81.9141C45.3469 81.8698 46.178 82.0167 46.9444 82.3436C47.7107 82.6704 48.3921 83.1685 48.936 83.7996L47.2673 85.2444C46.9271 84.8498 46.5041 84.5351 46.0283 84.3228C45.5525 84.1105 45.0358 84.0058 44.5149 84.0163C42.7883 84.0163 41.4446 85.2805 41.4446 87.4622C41.4446 89.6439 42.8172 90.9009 44.5582 90.9009C46.2992 90.9009 46.8049 90.1785 46.8049 90.1785V88.5892H44.5438V86.6892H49.2611V91.1537Z" fill="#57606F"/>
  <path d="M59.96 88.3291C59.96 89.8389 59.6927 90.8864 58.927 91.71C58.4711 92.1545 57.9267 92.4981 57.3293 92.7184C56.7319 92.9387 56.0948 93.0308 55.4594 92.9886C54.821 93.038 54.1793 92.9528 53.5758 92.7388C52.9723 92.5248 52.4204 92.1866 51.9557 91.7461C51.2333 90.9225 50.9443 89.875 50.9443 88.3652V82.1091H53.4583V88.3652C53.3871 88.9929 53.5352 89.6258 53.8773 90.1568C54.0677 90.3781 54.3056 90.5534 54.5734 90.6698C54.8411 90.7861 55.1316 90.8404 55.4233 90.8286C55.714 90.8409 56.0036 90.7868 56.2702 90.6704C56.5369 90.554 56.7734 90.3783 56.962 90.1568C57.3076 89.6273 57.4559 88.9931 57.381 88.3652V82.1091H59.96V88.3291Z" fill="#57606F"/>
  <path d="M71.1069 92.8153H68.3617L67.6393 90.6481H63.7672L63.0448 92.8153H60.3936L64.4391 82.0586H67.0542L71.1069 92.8153ZM67.0253 88.6903L65.6888 84.8254L64.3451 88.6903H67.0253Z" fill="#57606F"/>
  <path d="M78.2443 92.8154H72.0171V82.0731H74.5239V90.7421H78.2443V92.8154Z" fill="#57606F"/>
  <path d="M87.166 91.5366C85.9805 92.4383 84.5141 92.8912 83.0266 92.8153H79.4146V82.073H83.0266C84.5168 81.9942 85.9857 82.4531 87.166 83.3662C87.7183 83.8936 88.1579 84.5276 88.4582 85.2298C88.7585 85.9319 88.9134 86.6877 88.9134 87.4514C88.9134 88.2151 88.7585 88.9708 88.4582 89.673C88.1579 90.3752 87.7183 91.0091 87.166 91.5366ZM85.4106 84.9193C84.7786 84.4056 83.9768 84.1478 83.1639 84.1969H81.8924V90.6986H83.1639C83.9854 90.7383 84.7905 90.4588 85.4106 89.9184C85.7365 89.6018 85.9899 89.2182 86.1533 88.7942C86.3167 88.3701 86.3862 87.9157 86.3569 87.4622C86.3851 86.9958 86.3155 86.5287 86.1525 86.0907C85.9896 85.6528 85.7368 85.2538 85.4106 84.9193Z" fill="#57606F"/>
  <path d="M99.6927 92.8153H96.9476L96.1818 90.6481H92.353L91.5873 92.8153H88.9722L93.0177 82.0586H95.64L99.6927 92.8153ZM95.6111 88.6903L94.2747 84.8254L92.931 88.6903H95.6111Z" fill="#57606F"/>
  <path d="M110.811 84.067H108.044V92.8154H105.515V84.067H102.749V82.0731H110.811V84.067Z" fill="#57606F"/>
  <path d="M120.353 92.8152H117.464L115.21 88.7047H114.415V92.8152H111.887V82.0729H115.752C116.754 82.014 117.748 82.2828 118.583 82.8387C118.964 83.1224 119.271 83.4939 119.477 83.9215C119.683 84.3492 119.783 84.8203 119.768 85.2949C119.816 85.9705 119.634 86.6424 119.252 87.2021C118.871 87.7618 118.312 88.1766 117.666 88.3796L120.353 92.8152ZM116.647 84.2979C116.258 84.0663 115.804 83.9674 115.354 84.0162H114.357V86.7758H115.354C115.806 86.8203 116.26 86.7163 116.647 86.4796C116.815 86.353 116.951 86.1893 117.045 86.0012C117.138 85.8132 117.187 85.606 117.187 85.396C117.187 85.186 117.138 84.9788 117.045 84.7908C116.951 84.6028 116.815 84.439 116.647 84.3124V84.2979Z" fill="#57606F"/>
  <path d="M130.865 92.8153H128.127L127.361 90.6481H123.532L122.766 92.8153H120.151L124.197 82.0586H126.819L130.865 92.8153ZM126.783 88.6903L125.447 84.8254L124.11 88.6903H126.783Z" fill="#57606F"/>
  <path d="M134.303 92.8154H131.782V82.0731H134.303V92.8154Z" fill="#57606F"/>
  <path d="M145.978 92.8154H143.391L138.703 85.5262C138.703 85.5262 138.753 86.8194 138.753 87.9608V92.8154H136.29V82.0731H138.985L143.594 89.2972C143.594 89.2972 143.55 88.0836 143.55 86.9422V82.0731H146.006L145.978 92.8154Z" fill="#57606F"/>
  <path d="M150.456 92.8154H147.942V82.0731H150.456V92.8154Z" fill="#57606F"/>
  <path d="M162.138 92.8154H159.552L154.834 85.5262C154.834 85.5262 154.878 86.8194 154.878 87.9608V92.8154H152.429V82.0731H155.123L159.732 89.2972C159.732 89.2972 159.689 88.0836 159.689 86.9422V82.0731H162.145L162.138 92.8154Z" fill="#57606F"/>
  <path d="M173.92 91.1538C173.295 91.7757 172.546 92.2602 171.723 92.5762C170.899 92.8921 170.019 93.0327 169.138 92.9888C166.169 92.9888 163.554 91.0238 163.554 87.4479C163.554 83.8719 166.169 81.9142 169.174 81.9142C170.006 81.8688 170.838 82.0152 171.604 82.3422C172.371 82.6691 173.052 83.1677 173.595 83.7997L171.934 85.2445C171.594 84.8499 171.171 84.5352 170.695 84.3229C170.219 84.1106 169.702 84.006 169.181 84.0164C167.455 84.0164 166.111 85.2806 166.111 87.4623C166.111 89.644 167.484 90.901 169.225 90.901C170.966 90.901 171.471 90.1786 171.471 90.1786V88.5893H169.21V86.6893H173.928L173.92 91.1538Z" fill="#57606F"/>
  <path d="M94.7151 3.33032C76.8065 3.33032 59.1725 14.925 55.4087 36.265C51.645 57.6051 65.1757 69.2937 82.8965 69.2937C99.6564 69.2937 108.643 61.9973 112.718 58.8043C113.101 58.5069 113.359 58.0763 113.44 57.5978L117.579 34.1339C117.629 33.8491 117.615 33.557 117.54 33.2779C117.465 32.9988 117.33 32.7394 117.144 32.5179C116.959 32.2964 116.727 32.1181 116.465 31.9955C116.203 31.8728 115.918 31.8088 115.629 31.8078H91.5365C91.0695 31.8074 90.6172 31.9716 90.2592 32.2715C89.9012 32.5713 89.6603 32.9878 89.5788 33.4476L88.0328 41.1774C87.9868 41.4432 87.9958 41.7157 88.0593 41.9779C88.1228 42.24 88.2394 42.4864 88.4019 42.7017C88.5644 42.9171 88.7694 43.0968 89.0041 43.2297C89.2388 43.3627 89.4984 43.446 89.7666 43.4747H111.67L100.877 44.9195C100.925 45.1263 100.925 45.3412 100.877 45.548L99.7648 52.0136C99.6878 52.4976 99.4295 52.9341 99.0424 53.2345C97.5975 54.347 93.5954 56.7743 85.5766 56.7743C75.1811 56.7743 68.3471 49.2612 70.6371 36.2723C72.9272 23.2833 82.1957 15.7702 92.5262 15.7702C99.9381 15.7702 104.121 18.92 106.534 21.6868C106.864 22.0561 107.321 22.2873 107.813 22.3342C108.306 22.3811 108.799 22.2402 109.192 21.9396L117.529 15.6619C117.741 15.5013 117.919 15.2997 118.052 15.0691C118.184 14.8384 118.269 14.5835 118.302 14.3194C118.334 14.0552 118.313 13.7873 118.24 13.5315C118.167 13.2756 118.043 13.0371 117.876 12.83C115.167 9.46359 108.802 3.33032 94.7151 3.33032Z" fill="#57606F"/>
  <path d="M171.515 4.25476H127.448C126.982 4.25608 126.531 4.42102 126.175 4.72077C125.818 5.02051 125.578 5.436 125.497 5.89463L124.103 13.8412C124.055 14.1147 124.064 14.3954 124.132 14.6648C124.2 14.9343 124.324 15.1864 124.496 15.4046C124.667 15.6229 124.883 15.8023 125.129 15.9313C125.376 16.0602 125.646 16.1357 125.923 16.1529H149.04L139.996 17.3376L131.479 65.9487C131.429 66.2335 131.443 66.5256 131.518 66.8047C131.593 67.0838 131.728 67.3432 131.914 67.5647C132.1 67.7862 132.331 67.9645 132.593 68.0871C132.855 68.2098 133.14 68.2738 133.429 68.2748H144.41C144.876 68.2735 145.326 68.1086 145.683 67.8088C146.039 67.5091 146.279 67.0936 146.36 66.635L154.979 17.7638C155.06 17.3059 155.3 16.8913 155.657 16.5928C156.014 16.2942 156.464 16.1308 156.929 16.1312H170.12C170.586 16.1299 171.037 15.9649 171.393 15.6652C171.75 15.3655 171.99 14.95 172.071 14.4913L173.465 6.58092C173.516 6.29596 173.504 6.00333 173.429 5.72368C173.354 5.44403 173.219 5.18415 173.033 4.96235C172.847 4.74056 172.615 4.56226 172.352 4.44C172.09 4.31774 171.804 4.25451 171.515 4.25476Z" fill="#57606F"/>
</svg>
